# xmcd
#
# Track frame offsets:
#	150
#	16897
#	32802
#	49795
#	65595
#	81832
#	99790
#	114860
#	131802
#	147802
#	167742
#	182884
#	203615
#	222147
#	234995
#	254345
#	269342
#	287955
#	304325
#
# Disc length: 4236
#
# Revision: 1
# Processed by: cddbd v1.5.1PL0 Copyright (c) Steve Scherf et al.
# Submitted via: dBpowerAMP V4.0
# Normalized: r0:TDELIM( - )
#
DISCID=0e108a13
DTITLE=Various Artist - Country Favourites
DYEAR=1900
DGENRE=Country
TTITLE0=Tracy Byrd - I'm From The Country
TTITLE1=Shania Twain - Love Gets Me Every Time
TTITLE2=Clint Black - Nothin' But the Tailights
TTITLE3=David Kersh - If I Never Stop Loving You
TTITLE4=Shania Twain - Don't Be Stupid (You Know I Love You)
TTITLE5=George Strait - One Night At A Time
TTITLE6=Tracy Lawrence - Better Man, Better Off
TTITLE7=Kenny Chesney - She's Got It All
TTITLE8=Shania Twain - You're Still The One
TTITLE9=Trisha Yearwood - How Do I Live
TTITLE10=Deana Carter - We Danced Anyway
TTITLE11=Shania Twain - The Woman In Me
TTITLE12=George Strait - Carrying Your Love With Me
TTITLE13=Patty Loveless - She Drew A Broken Heart
TTITLE14=John Michael Montgomery - How Was I To Know
TTITLE15=Lorrie Morgan - Good As I Was To You
TTITLE16=Alan Jackson - Who's Cheatin' Who
TTITLE17=Lonestar - Come Cryin' To Me
TTITLE18=Dixie Chicks - I Can Love You Better
EXTD=
EXTT0=
EXTT1=
EXTT2=
EXTT3=
EXTT4=
EXTT5=
EXTT6=
EXTT7=
EXTT8=
EXTT9=
EXTT10=
EXTT11=
EXTT12=
EXTT13=
EXTT14=
EXTT15=
EXTT16=
EXTT17=
EXTT18=
PLAYORDER=
